{"title":"Seventh.Son.2015.PROPER.1080p.HC.WEBRip.x264.AAC2.0-RARBG","uid":11772334,"size":3151884892,"categoryP":"video","categoryS":"movies","magnet":"?xt=urn:btih:82414da3d1d6aa25886bf9a5e431fd9a12bbd788&amp;dn=Seventh.Son.2015.PROPER.1080p.HC.WEBRip.x264.AAC2.0-RARBG&amp;tr=udp%3A%2F%2Ftracker.openbittorrent.com%3A80&amp;tr=udp%3A%2F%2Fopen.demonii.com%3A1337&amp;tr=udp%3A%2F%2Ftracker.coppersurfer.tk%3A6969&amp;tr=udp%3A%2F%2Fexodus.desync.com%3A6969","seeders":257,"leechers":26,"uploader":"vickey1992","files":4,"time":1427119673,"description":" &lt;a href=&quot;http://rarbg.com/&quot; rel=&quot;nofollow&quot; target=&quot;_NEW&quot;&gt;http://rarbg.com/&lt;/a&gt;\n\n\nSeventh.Son.2015.PROPER.1080p.HC.WEBRip.x264.AAC2.0-RARBG\n\nInfo:\n\n[mediainfo]\n\nVideo\nID : 1\nFormat : AVC\nFormat/Info : Advanced Video Codec\nFormat profile : &lt;a class=&quot;__cf_email__&quot; href=&quot;/cdn-cgi/l/email-protection&quot; data-cfemail=&quot;1d55747a755d5129332c&quot;&gt;[email&amp;#160;protected]&lt;/a&gt;&lt;script cf-hash='f9e31' type=&quot;text/javascript&quot;&gt;\n/* &lt;![CDATA[ */!function(){try{var t=&quot;currentScript&quot;in document?document.currentScript:function(){for(var t=document.getElementsByTagName(&quot;script&quot;),e=t.length;e--;)if(t[e].getAttribute(&quot;cf-hash&quot;))return t[e]}();if(t&amp;&amp;t.previousSibling){var e,r,n,i,c=t.previousSibling,a=c.getAttribute(&quot;data-cfemail&quot;);if(a){for(e=&quot;&quot;,r=parseInt(a.substr(0,2),16),n=2;a.length-n;n+=2)i=parseInt(a.substr(n,2),16)^r,e+=String.fromCharCode(i);e=document.createTextNode(e),c.parentNode.replaceChild(e,c)}}}catch(u){}}();/* ]]&gt; */&lt;/script&gt;\nFormat settings, CABAC : Yes\nFormat settings, ReFrames : 4 frames\nCodec ID : avc1\nCodec ID/Info : Advanced Video Coding\nDuration : 1h 42mn\nBit rate : 3 874 Kbps\nWidth : 1 920 pixels\nHeight : 798 pixels\nDisplay aspect ratio : 2.40:1\nFrame rate mode : Constant\nFrame rate : 24.000 fps\nColor space : YUV\nChroma subsampling : 4:2:0\nBit depth : 8 bits\nScan type : Progressive\nBits/(Pixel*Frame) : 0.105\nStream size : 2.77 GiB (94%)\nTitle : Seventh.Son.2015.PROPER.1080p.HC.WEBRip.x264.AAC2.0-RARBG\n\nAudio\nID : 2\nFormat : AAC\nFormat/Info : Advanced Audio Codec\nFormat profile : LC\nCodec ID : 40\nDuration : 1h 42mn\nBit rate mode : Constant\nBit rate : 224 Kbps\nChannel(s) : 2 channels\nChannel positions : Front: L R\nSampling rate : 44.1 KHz\nCompression mode : Lossy\nStream size : 164 MiB (5%)\nTitle : Seventh.Son.2015.PROPER.1080p.HC.WEBRip.x264.AAC2.0-RARBG\n\n\n\nNotes:\nHardcoded Chinese subtitles.\nGreetz to all! :)","torrent":{"xt":"urn:btih:82414da3d1d6aa25886bf9a5e431fd9a12bbd788","amp;dn":"Seventh.Son.2015.PROPER.1080p.HC.WEBRip.x264.AAC2.0-RARBG","amp;tr":["udp%3A%2F%2Ftracker.openbittorrent.com%3A80","udp%3A%2F%2Fopen.demonii.com%3A1337","udp%3A%2F%2Ftracker.coppersurfer.tk%3A6969","udp%3A%2F%2Fexodus.desync.com%3A6969"],"infoHash":"82414da3d1d6aa25886bf9a5e431fd9a12bbd788","infoHashBuffer":{"type":"Buffer","data":[130,65,77,163,209,214,170,37,136,107,249,165,228,49,253,154,18,187,215,136]},"announce":[],"urlList":[]}}